<?xml version="1.0" encoding="UTF-8" standalone="no"?>
<svg
   xmlns:dc="http://purl.org/dc/elements/1.1/"
   xmlns:cc="http://creativecommons.org/ns#"
   xmlns:rdf="http://www.w3.org/1999/02/22-rdf-syntax-ns#"
   xmlns:svg="http://www.w3.org/2000/svg"
   xmlns="http://www.w3.org/2000/svg"
   xmlns:sodipodi="http://sodipodi.sourceforge.net/DTD/sodipodi-0.dtd"
   xmlns:inkscape="http://www.inkscape.org/namespaces/inkscape"
   inkscape:version="1.0beta2 (2b71d25, 2019-12-03)"
   sodipodi:docname="spraypay.svg"
   viewBox="0 0 220.36265 70.565598"
   height="70.565598"
   width="220.36266"
   xml:space="preserve"
   id="svg10"
   version="1.1"><metadata
     id="metadata16"><rdf:RDF><cc:Work
         rdf:about=""><dc:format>image/svg+xml</dc:format><dc:type
           rdf:resource="http://purl.org/dc/dcmitype/StillImage" /><dc:title></dc:title></cc:Work></rdf:RDF></metadata><defs
     id="defs14" /><sodipodi:namedview
     inkscape:current-layer="g20"
     inkscape:window-maximized="0"
     inkscape:window-y="398"
     inkscape:window-x="511"
     inkscape:cy="40.437999"
     inkscape:cx="150.24001"
     inkscape:zoom="3.953674"
     fit-margin-bottom="0"
     fit-margin-right="0"
     fit-margin-left="0"
     fit-margin-top="0"
     showgrid="false"
     id="namedview12"
     inkscape:window-height="643"
     inkscape:window-width="1976"
     inkscape:pageshadow="2"
     inkscape:pageopacity="0"
     guidetolerance="10"
     gridtolerance="10"
     objecttolerance="10"
     borderopacity="1"
     inkscape:document-rotation="0"
     bordercolor="#666666"
     pagecolor="#ffffff" /><g
     transform="matrix(1.3333333,0,0,-1.3333333,0,80.871331)"
     inkscape:label="ink_ext_XXXXXX"
     inkscape:groupmode="layer"
     id="g18"><g
       transform="scale(0.1)"
       id="g20"><path
         inkscape:connector-curvature="0"
         id="path22"
         style="fill:#1671c2;fill-opacity:1;fill-rule:nonzero;stroke:none"
         d="m 634.969,290.789 c 0,0 17.301,-19.637 38.347,-19.637 8.422,0 16.836,3.036 16.836,12.391 0,18.469 -75.757,20.57 -75.757,72.949 0,30.16 26.425,50.27 59.625,50.27 22.21,0 53.308,-10.754 53.308,-36.242 v -18.239 h -37.41 v 7.25 c 0,6.078 -8.648,9.824 -16.367,9.824 -8.418,0 -17.067,-3.511 -17.067,-11.226 0,-20.344 75.754,-17.535 75.754,-72.484 0,-27.825 -21.742,-51.672 -59.386,-51.672 -39.282,0 -61.028,27.59 -61.028,27.59 l 23.145,29.226" /><path
         inkscape:connector-curvature="0"
         id="path24"
         style="fill:#1671c2;fill-opacity:1;fill-rule:nonzero;stroke:none"
         d="m 817.109,267.41 c 12.625,0 23.618,10.285 23.618,28.762 0,17.996 -9.586,29.691 -23.618,29.691 -12.16,0 -23.613,-8.886 -23.613,-29.691 0,-14.504 7.715,-28.762 23.613,-28.762 z m -62.894,50.735 c 0,3.273 -1.871,5.144 -5.149,5.144 h -8.886 v 33.906 h 34.84 c 11.695,0 15.668,-5.379 15.668,-10.527 0,-1.402 0,-2.098 0,-2.098 h 0.468 c 0,0 10.524,15.426 36.012,15.426 32.73,0 54.242,-25.715 54.242,-63.129 0,-38.109 -24.086,-62.894 -56.117,-62.894 -19.641,0 -30.633,10.285 -30.633,10.285 h -0.465 c 0,0 0.465,-4.211 0.465,-10.285 V 190.02 h -40.445 v 128.125" /><path
         inkscape:connector-curvature="0"
         id="path26"
         style="fill:#1671c2;fill-opacity:1;fill-rule:nonzero;stroke:none"
         d="m 902.211,318.145 c 0,3.273 -1.871,5.144 -5.145,5.144 h -8.886 v 33.906 h 35.781 c 10.984,0 17.062,-4.449 17.062,-15.433 v -6.317 c 0,-3.738 -0.468,-6.078 -0.468,-6.078 h 0.468 c 5.149,16.367 20.344,29.93 38.344,29.93 2.34,0 4.68,-0.473 4.68,-0.473 v -39.746 c 0,0 -3.27,0.703 -8.184,0.703 -9.586,0 -25.254,-3.039 -31.097,-21.043 -1.403,-4.441 -2.106,-9.824 -2.106,-16.367 v -45.594 h -40.449 v 81.368" /><path
         inkscape:connector-curvature="0"
         id="path28"
         style="fill:#1671c2;fill-opacity:1;fill-rule:nonzero;stroke:none"
         d="m 1044.36,264.832 c 10.53,0 19.88,11.465 19.88,21.281 v 1.867 h -3.74 c -12.86,0 -27.6,-3.503 -27.6,-13.089 0,-5.614 3.51,-10.059 11.46,-10.059 z m 17.77,47.703 h 1.64 v 1.399 c 0,11.461 -5.38,15.668 -15.43,15.668 -5.15,0 -10.52,-1.164 -10.52,-5.844 v -5.375 h -37.42 v 13.324 c 0,26.891 34.15,28.289 47.94,28.289 42.08,0 55.88,-21.508 55.88,-49.098 v -35.07 c 0,-3.269 1.87,-5.144 5.14,-5.144 h 8.89 v -33.907 h -35.07 c -11.7,0 -15.9,7.246 -15.9,12.625 0,0.938 0,2.102 0,2.102 h -0.47 c 0,0 -8.42,-17.531 -33.67,-17.531 -22.45,0 -40.917,14.961 -40.917,38.808 0,35.778 51.207,39.754 69.907,39.754" /><path
         inkscape:connector-curvature="0"
         id="path30"
         style="fill:#1671c2;fill-opacity:1;fill-rule:nonzero;stroke:none"
         d="m 1148.88,221.348 c 6.54,0 14.02,1.863 17.99,11.922 l 1.41,3.507 -38.11,82.774 c -1.41,3.035 -2.34,3.738 -5.15,3.738 h -4.44 v 33.906 h 29.46 c 6.78,0 11.7,-3.504 14.03,-9.82 l 17.77,-48.637 c 2.34,-6.547 4.44,-18.703 4.44,-18.703 h 0.47 c 0,0 2.11,12.156 3.97,18.703 l 13.33,48.637 c 1.64,6.316 7.95,9.82 14.27,9.82 h 30.16 v -33.906 h -4.44 c -2.81,0 -4.45,-0.703 -5.61,-3.738 l -36.49,-95.637 c -10.28,-26.648 -31.09,-36.238 -50.26,-36.238 -20.81,0 -33.91,12.859 -33.91,12.859 l 14.5,28.528 c 0,0 7.02,-7.715 16.61,-7.715" /><path
         inkscape:connector-curvature="0"
         id="path32"
         style="fill:#234ea7;fill-opacity:1;fill-rule:nonzero;stroke:none"
         d="m 1326.56,323.523 c 13.57,0 20.11,9.586 20.11,22.911 0,13.336 -6.54,22.453 -19.41,22.453 h -16.36 v -45.364 z m -57.51,45.364 h -15.2 v 35.07 h 81.14 c 32.5,0 54.47,-23.852 54.47,-57.523 0,-33.668 -21.97,-57.985 -54.47,-57.985 h -24.09 v -51.672 h -41.85 v 132.11" /><path
         inkscape:connector-curvature="0"
         id="path34"
         style="fill:#234ea7;fill-opacity:1;fill-rule:nonzero;stroke:none"
         d="m 1448.61,264.832 c 10.53,0 19.88,11.465 19.88,21.281 v 1.867 h -3.74 c -12.87,0 -27.59,-3.503 -27.59,-13.089 0,-5.614 3.5,-10.059 11.45,-10.059 z m 17.78,47.703 h 1.63 v 1.399 c 0,11.461 -5.37,15.668 -15.43,15.668 -5.15,0 -10.52,-1.164 -10.52,-5.844 v -5.375 h -37.41 v 13.324 c 0,26.891 34.14,28.289 47.93,28.289 42.09,0 55.89,-21.508 55.89,-49.098 v -35.07 c 0,-3.269 1.86,-5.144 5.13,-5.144 h 8.89 v -33.907 h -35.07 c -11.7,0 -15.9,7.246 -15.9,12.625 0,0.938 0,2.102 0,2.102 h -0.47 c 0,0 -8.41,-17.531 -33.67,-17.531 -22.45,0 -40.92,14.961 -40.92,38.808 0,35.778 51.21,39.754 69.92,39.754" /><path
         inkscape:connector-curvature="0"
         id="path36"
         style="fill:#234ea7;fill-opacity:1;fill-rule:nonzero;stroke:none"
         d="m 1553.12,221.348 c 6.55,0 14.03,1.863 18,11.922 l 1.41,3.507 -38.12,82.774 c -1.39,3.035 -2.33,3.738 -5.13,3.738 h -4.46 v 33.906 h 29.47 c 6.78,0 11.7,-3.504 14.03,-9.82 l 17.76,-48.637 c 2.35,-6.547 4.46,-18.703 4.46,-18.703 h 0.46 c 0,0 2.1,12.156 3.97,18.703 l 13.33,48.637 c 1.64,6.316 7.95,9.82 14.27,9.82 h 30.15 v -33.906 h -4.43 c -2.81,0 -4.44,-0.703 -5.61,-3.738 l -36.48,-95.637 c -10.29,-26.648 -31.1,-36.238 -50.27,-36.238 -20.81,0 -33.91,12.859 -33.91,12.859 l 14.5,28.528 c 0,0 7.01,-7.715 16.6,-7.715" /><path
         inkscape:connector-curvature="0"
         id="path38"
         style="fill:#589ad9;fill-opacity:1;fill-rule:nonzero;stroke:none"
         d="m 423.934,407.098 c -0.844,0 -1.696,0.336 -2.539,1.015 -1.352,1.184 -1.524,3.383 -0.168,4.907 l 34.875,37.246 c 1.359,1.523 3.554,1.523 4.914,0.172 1.523,-1.352 1.523,-3.555 0.164,-4.907 l -34.871,-37.25 c -0.508,-0.676 -1.524,-1.183 -2.375,-1.183" /><path
         inkscape:connector-curvature="0"
         id="path40"
         style="fill:#589ad9;fill-opacity:1;fill-rule:nonzero;stroke:none"
         d="m 412.762,447.898 c -0.848,0 -1.692,0.172 -2.199,0.844 -1.528,1.188 -1.696,3.391 -0.508,4.914 l 31.996,39.614 c 1.187,1.527 3.387,1.695 4.91,0.343 1.523,-1.015 1.695,-3.39 0.508,-4.914 L 415.473,449.25 c -0.68,-0.844 -1.696,-1.352 -2.711,-1.352" /><path
         inkscape:connector-curvature="0"
         id="path42"
         style="fill:#589ad9;fill-opacity:1;fill-rule:nonzero;stroke:none"
         d="m 352.32,428.262 c -0.847,0 -1.523,0.168 -2.199,0.676 -1.523,1.355 -1.695,3.554 -0.508,4.91 l 32.332,39.445 c 1.188,1.523 3.391,1.695 4.743,0.508 1.523,-1.352 1.863,-3.383 0.679,-4.91 l -32.34,-39.278 c -0.675,-1.015 -1.691,-1.351 -2.707,-1.351" /><path
         inkscape:connector-curvature="0"
         id="path44"
         style="fill:#589ad9;fill-opacity:1;fill-rule:nonzero;stroke:none"
         d="m 640.137,430.121 c -0.336,0 -0.844,0.172 -1.356,0.34 -1.691,0.676 -2.707,2.707 -2.027,4.402 l 18.449,47.571 c 0.68,1.867 2.875,2.711 4.57,2.031 1.696,-0.844 2.711,-2.703 2.032,-4.399 l -18.45,-47.746 c -0.507,-1.519 -1.867,-2.199 -3.218,-2.199" /><path
         inkscape:connector-curvature="0"
         id="path46"
         style="fill:#589ad9;fill-opacity:1;fill-rule:nonzero;stroke:none"
         d="m 601.703,451.281 c -1.695,0 -3.219,1.36 -3.555,3.055 l -8.125,50.109 c -0.339,2.032 1.016,3.727 2.875,4.063 1.868,0.34 3.727,-1.016 4.063,-3.047 l 8.297,-50.109 c 0.172,-1.868 -1.016,-3.563 -2.875,-3.899 -0.172,-0.172 -0.336,-0.172 -0.68,-0.172" /><path
         inkscape:connector-curvature="0"
         id="path48"
         style="fill:#589ad9;fill-opacity:1;fill-rule:nonzero;stroke:none"
         d="m 746.969,462.461 h -0.172 c -2.031,0.168 -3.555,1.859 -3.387,3.723 l 3.219,50.793 c 0.168,2.031 1.859,3.554 3.723,3.382 1.863,0 3.386,-1.859 3.218,-3.554 l -3.047,-51.129 c -0.171,-1.692 -1.695,-3.215 -3.554,-3.215" /><path
         inkscape:connector-curvature="0"
         id="path50"
         style="fill:#589ad9;fill-opacity:1;fill-rule:nonzero;stroke:none"
         d="m 528.055,495.813 c 11.312,0 20.488,-9.172 20.488,-20.489 0,-11.312 -9.176,-20.48 -20.488,-20.48 -11.313,0 -20.485,9.168 -20.485,20.48 0,11.317 9.172,20.489 20.485,20.489" /><path
         inkscape:connector-curvature="0"
         id="path52"
         style="fill:#589ad9;fill-opacity:1;fill-rule:nonzero;stroke:none"
         d="m 505.199,560.488 c 11.321,0 20.489,-9.175 20.489,-20.488 0,-11.316 -9.168,-20.484 -20.489,-20.484 -11.312,0 -20.484,9.168 -20.484,20.484 0,11.313 9.172,20.488 20.484,20.488" /><path
         inkscape:connector-curvature="0"
         id="path54"
         style="fill:#589ad9;fill-opacity:1;fill-rule:nonzero;stroke:none"
         d="m 591.203,527.305 c 11.32,0 20.492,-9.176 20.492,-20.489 0,-11.316 -9.172,-20.484 -20.492,-20.484 -11.312,0 -20.48,9.168 -20.48,20.484 0,11.313 9.168,20.489 20.48,20.489" /><path
         inkscape:connector-curvature="0"
         id="path56"
         style="fill:#589ad9;fill-opacity:1;fill-rule:nonzero;stroke:none"
         d="m 535.68,359.863 c 11.312,0 20.48,-9.175 20.48,-20.492 0,-11.312 -9.168,-20.48 -20.48,-20.48 -11.317,0 -20.489,9.168 -20.489,20.48 0,11.317 9.172,20.492 20.489,20.492" /><path
         inkscape:connector-curvature="0"
         id="path58"
         style="fill:#589ad9;fill-opacity:1;fill-rule:nonzero;stroke:none"
         d="m 537.711,270.645 c 11.312,0 20.48,-9.18 20.48,-20.489 0,-11.32 -9.168,-20.488 -20.48,-20.488 -11.316,0 -20.488,9.168 -20.488,20.488 0,11.309 9.172,20.489 20.488,20.489" /><path
         inkscape:connector-curvature="0"
         id="path60"
         style="fill:#234ea7;fill-opacity:1;fill-rule:nonzero;stroke:none"
         d="m 457.797,211.551 c 11.312,0 20.484,-9.168 20.484,-20.488 0,-11.309 -9.172,-20.477 -20.484,-20.477 -11.313,0 -20.488,9.168 -20.488,20.477 0,11.32 9.175,20.488 20.488,20.488" /><path
         inkscape:connector-curvature="0"
         id="path62"
         style="fill:#589ad9;fill-opacity:1;fill-rule:nonzero;stroke:none"
         d="m 399.047,157.879 c 11.312,0 20.488,-9.168 20.488,-20.477 0,-11.32 -9.176,-20.492 -20.488,-20.492 -11.313,0 -20.484,9.172 -20.484,20.492 0,11.309 9.171,20.477 20.484,20.477" /><path
         inkscape:connector-curvature="0"
         id="path64"
         style="fill:#589ad9;fill-opacity:1;fill-rule:nonzero;stroke:none"
         d="m 326.25,125.547 c 11.313,0 20.484,-9.172 20.484,-20.488 0,-11.3129 -9.171,-20.4809 -20.484,-20.4809 -11.312,0 -20.488,9.168 -20.488,20.4809 0,11.316 9.176,20.488 20.488,20.488" /><path
         inkscape:connector-curvature="0"
         id="path66"
         style="fill:#589ad9;fill-opacity:1;fill-rule:nonzero;stroke:none"
         d="m 247.184,118.27 c 11.312,0 20.488,-9.18 20.488,-20.4887 0,-11.3165 -9.176,-20.4883 -20.488,-20.4883 -11.317,0 -20.485,9.1718 -20.485,20.4883 0,11.3087 9.168,20.4887 20.485,20.4887" /><path
         inkscape:connector-curvature="0"
         id="path68"
         style="fill:#234ea7;fill-opacity:1;fill-rule:nonzero;stroke:none"
         d="m 169.645,136.551 c 11.312,0 20.48,-9.168 20.48,-20.488 0,-11.309 -9.168,-20.4888 -20.48,-20.4888 -11.317,0 -20.493,9.1798 -20.493,20.4888 0,11.32 9.176,20.488 20.493,20.488" /><path
         inkscape:connector-curvature="0"
         id="path70"
         style="fill:#589ad9;fill-opacity:1;fill-rule:nonzero;stroke:none"
         d="m 102.09,178.711 c 11.312,0 20.488,-9.172 20.488,-20.488 0,-11.321 -9.176,-20.489 -20.488,-20.489 -11.3127,0 -20.4845,9.168 -20.4845,20.489 0,11.316 9.1718,20.488 20.4845,20.488" /><path
         inkscape:connector-curvature="0"
         id="path72"
         style="fill:#589ad9;fill-opacity:1;fill-rule:nonzero;stroke:none"
         d="m 51.6406,240.164 c 11.3125,0 20.4844,-9.172 20.4844,-20.488 0,-11.309 -9.1719,-20.488 -20.4844,-20.488 -11.3203,0 -20.4883,9.179 -20.4883,20.488 0,11.316 9.168,20.488 20.4883,20.488" /><path
         inkscape:connector-curvature="0"
         id="path74"
         style="fill:#234ea7;fill-opacity:1;fill-rule:nonzero;stroke:none"
         d="m 23.3633,314.656 c 11.3125,0 20.4883,-9.168 20.4883,-20.484 0,-11.313 -9.1758,-20.481 -20.4883,-20.481 -11.3125,0 -20.48439,9.168 -20.48439,20.481 0,11.316 9.17189,20.484 20.48439,20.484" /><path
         inkscape:connector-curvature="0"
         id="path76"
         style="fill:#589ad9;fill-opacity:1;fill-rule:nonzero;stroke:none"
         d="m 20.4883,394.23 c 11.3125,0 20.4844,-9.171 20.4844,-20.488 0,-11.312 -9.1719,-20.48 -20.4844,-20.48 C 9.17578,353.262 0,362.43 0,373.742 0,385.059 9.17578,394.23 20.4883,394.23" /><path
         inkscape:connector-curvature="0"
         id="path78"
         style="fill:#589ad9;fill-opacity:1;fill-rule:nonzero;stroke:none"
         d="m 43.1719,470.418 c 11.3164,0 20.4844,-9.176 20.4844,-20.488 0,-11.313 -9.168,-20.485 -20.4844,-20.485 -11.3125,0 -20.4883,9.172 -20.4883,20.485 0,11.312 9.1758,20.488 20.4883,20.488" /><path
         inkscape:connector-curvature="0"
         id="path80"
         style="fill:#589ad9;fill-opacity:1;fill-rule:nonzero;stroke:none"
         d="m 88.8867,535.598 c 11.3123,0 20.4803,-9.172 20.4803,-20.489 0,-11.312 -9.168,-20.48 -20.4803,-20.48 -11.3125,0 -20.4883,9.168 -20.4883,20.48 0,11.317 9.1758,20.489 20.4883,20.489" /><path
         inkscape:connector-curvature="0"
         id="path82"
         style="fill:#589ad9;fill-opacity:1;fill-rule:nonzero;stroke:none"
         d="m 153.223,582.492 c 11.312,0 20.48,-9.168 20.48,-20.48 0,-11.317 -9.168,-20.489 -20.48,-20.489 -11.321,0 -20.489,9.172 -20.489,20.489 0,11.312 9.168,20.48 20.489,20.48" /><path
         inkscape:connector-curvature="0"
         id="path84"
         style="fill:#589ad9;fill-opacity:1;fill-rule:nonzero;stroke:none"
         d="m 229.066,606.535 c 11.313,0 20.489,-9.168 20.489,-20.488 0,-11.313 -9.176,-20.481 -20.489,-20.481 -11.312,0 -20.484,9.168 -20.484,20.481 0,11.32 9.172,20.488 20.484,20.488" /><path
         inkscape:connector-curvature="0"
         id="path86"
         style="fill:#589ad9;fill-opacity:1;fill-rule:nonzero;stroke:none"
         d="m 308.641,605.184 c 11.312,0 20.484,-9.176 20.484,-20.489 0,-11.312 -9.172,-20.484 -20.484,-20.484 -11.313,0 -20.489,9.172 -20.489,20.484 0,11.313 9.176,20.489 20.489,20.489" /><path
         inkscape:connector-curvature="0"
         id="path88"
         style="fill:#589ad9;fill-opacity:1;fill-rule:nonzero;stroke:none"
         d="m 383.641,578.262 c 11.312,0 20.484,-9.172 20.484,-20.485 0,-11.312 -9.172,-20.484 -20.484,-20.484 -11.313,0 -20.489,9.172 -20.489,20.484 0,11.313 9.176,20.485 20.489,20.485" /><path
         inkscape:connector-curvature="0"
         id="path90"
         style="fill:#234ea7;fill-opacity:1;fill-rule:nonzero;stroke:none"
         d="m 660.789,501.059 c 9.535,0 17.274,-7.731 17.274,-17.266 0,-9.535 -7.739,-17.27 -17.274,-17.27 -9.535,0 -17.266,7.735 -17.266,17.27 0,9.535 7.731,17.266 17.266,17.266" /><path
         inkscape:connector-curvature="0"
         id="path92"
         style="fill:#1671c2;fill-opacity:1;fill-rule:nonzero;stroke:none"
         d="m 446.281,513.758 c 9.539,0 17.274,-7.731 17.274,-17.27 0,-9.539 -7.735,-17.265 -17.274,-17.265 -9.535,0 -17.269,7.726 -17.269,17.265 0,9.539 7.734,17.27 17.269,17.27" /><path
         inkscape:connector-curvature="0"
         id="path94"
         style="fill:#589ad9;fill-opacity:1;fill-rule:nonzero;stroke:none"
         d="m 582.402,441.633 c 9.539,0 17.27,-7.727 17.27,-17.27 0,-9.535 -7.731,-17.265 -17.27,-17.265 -9.539,0 -17.265,7.73 -17.265,17.265 0,9.543 7.726,17.27 17.265,17.27" /><path
         inkscape:connector-curvature="0"
         id="path96"
         style="fill:#589ad9;fill-opacity:1;fill-rule:nonzero;stroke:none"
         d="m 483.191,320.922 c 9.539,0 17.274,-7.731 17.274,-17.27 0,-9.539 -7.735,-17.265 -17.274,-17.265 -9.535,0 -17.269,7.726 -17.269,17.265 0,9.539 7.734,17.27 17.269,17.27" /><path
         inkscape:connector-curvature="0"
         id="path98"
         style="fill:#589ad9;fill-opacity:1;fill-rule:nonzero;stroke:none"
         d="m 445.777,260.313 c 9.536,0 17.27,-7.739 17.27,-17.266 0,-9.543 -7.734,-17.277 -17.27,-17.277 -9.539,0 -17.273,7.734 -17.273,17.277 0,9.527 7.734,17.266 17.273,17.266" /><path
         inkscape:connector-curvature="0"
         id="path100"
         style="fill:#589ad9;fill-opacity:1;fill-rule:nonzero;stroke:none"
         d="m 404.297,207.488 c 9.535,0 17.269,-7.734 17.269,-17.265 0,-9.539 -7.734,-17.278 -17.269,-17.278 -9.535,0 -17.27,7.739 -17.27,17.278 0,9.531 7.735,17.265 17.27,17.265" /><path
         inkscape:connector-curvature="0"
         id="path102"
         style="fill:#589ad9;fill-opacity:1;fill-rule:nonzero;stroke:none"
         d="m 348.09,170.75 c 9.535,0 17.265,-7.734 17.265,-17.266 0,-9.539 -7.73,-17.273 -17.265,-17.273 -9.539,0 -17.27,7.734 -17.27,17.273 0,9.532 7.731,17.266 17.27,17.266" /><path
         inkscape:connector-curvature="0"
         id="path104"
         style="fill:#589ad9;fill-opacity:1;fill-rule:nonzero;stroke:none"
         d="m 283.074,153.992 c 9.539,0 17.274,-7.734 17.274,-17.273 0,-9.531 -7.735,-17.27 -17.274,-17.27 -9.535,0 -17.269,7.739 -17.269,17.27 0,9.539 7.734,17.273 17.269,17.273" /><path
         inkscape:connector-curvature="0"
         id="path106"
         style="fill:#234ea7;fill-opacity:1;fill-rule:nonzero;stroke:none"
         d="m 216.199,158.73 c 9.539,0 17.274,-7.738 17.274,-17.265 0,-9.543 -7.735,-17.277 -17.274,-17.277 -9.535,0 -17.269,7.734 -17.269,17.277 0,9.527 7.734,17.265 17.269,17.265" /><path
         inkscape:connector-curvature="0"
         id="path108"
         style="fill:#1671c2;fill-opacity:1;fill-rule:nonzero;stroke:none"
         d="m 154.238,184.629 c 9.535,0 17.266,-7.727 17.266,-17.266 0,-9.535 -7.731,-17.265 -17.266,-17.265 -9.543,0 -17.269,7.73 -17.269,17.265 0,9.539 7.726,17.266 17.269,17.266" /><path
         inkscape:connector-curvature="0"
         id="path110"
         style="fill:#589ad9;fill-opacity:1;fill-rule:nonzero;stroke:none"
         d="m 103.953,228.992 c 9.535,0 17.266,-7.734 17.266,-17.273 0,-9.531 -7.731,-17.27 -17.266,-17.27 -9.5389,0 -17.2694,7.739 -17.2694,17.27 0,9.539 7.7305,17.273 17.2694,17.273" /><path
         inkscape:connector-curvature="0"
         id="path112"
         style="fill:#234ea7;fill-opacity:1;fill-rule:nonzero;stroke:none"
         d="m 70.4297,287.23 c 9.5391,0 17.2695,-7.73 17.2695,-17.269 0,-9.531 -7.7304,-17.266 -17.2695,-17.266 -9.5352,0 -17.2656,7.735 -17.2656,17.266 0,9.539 7.7304,17.269 17.2656,17.269" /><path
         inkscape:connector-curvature="0"
         id="path114"
         style="fill:#589ad9;fill-opacity:1;fill-rule:nonzero;stroke:none"
         d="m 57.2266,353.09 c 9.5351,0 17.2656,-7.731 17.2656,-17.27 0,-9.539 -7.7305,-17.265 -17.2656,-17.265 -9.543,0 -17.2696,7.726 -17.2696,17.265 0,9.539 7.7266,17.27 17.2696,17.27" /><path
         inkscape:connector-curvature="0"
         id="path116"
         style="fill:#1671c2;fill-opacity:1;fill-rule:nonzero;stroke:none"
         d="m 65.6875,419.629 c 9.543,0 17.2695,-7.734 17.2695,-17.274 0,-9.535 -7.7265,-17.269 -17.2695,-17.269 -9.5352,0 -17.2656,7.734 -17.2656,17.269 0,9.54 7.7304,17.274 17.2656,17.274" /><path
         inkscape:connector-curvature="0"
         id="path118"
         style="fill:#589ad9;fill-opacity:1;fill-rule:nonzero;stroke:none"
         d="m 95.1523,479.895 c 9.5357,0 17.2617,-7.727 17.2617,-17.266 0,-9.539 -7.726,-17.27 -17.2617,-17.27 -9.5429,0 -17.2734,7.731 -17.2734,17.27 0,9.539 7.7305,17.266 17.2734,17.266" /><path
         inkscape:connector-curvature="0"
         id="path120"
         style="fill:#234ea7;fill-opacity:1;fill-rule:nonzero;stroke:none"
         d="m 142.215,527.813 c 9.539,0 17.265,-7.735 17.265,-17.274 0,-9.535 -7.726,-17.269 -17.265,-17.269 -9.535,0 -17.27,7.734 -17.27,17.269 0,9.539 7.735,17.274 17.27,17.274" /><path
         inkscape:connector-curvature="0"
         id="path122"
         style="fill:#1671c2;fill-opacity:1;fill-rule:nonzero;stroke:none"
         d="m 202.148,558.113 c 9.536,0 17.27,-7.73 17.27,-17.265 0,-9.539 -7.734,-17.27 -17.27,-17.27 -9.535,0 -17.269,7.731 -17.269,17.27 0,9.535 7.734,17.265 17.269,17.265" /><path
         inkscape:connector-curvature="0"
         id="path124"
         style="fill:#589ad9;fill-opacity:1;fill-rule:nonzero;stroke:none"
         d="m 268.516,567.598 c 9.535,0 17.269,-7.731 17.269,-17.274 0,-9.535 -7.734,-17.265 -17.269,-17.265 -9.536,0 -17.274,7.73 -17.274,17.265 0,9.543 7.738,17.274 17.274,17.274" /><path
         inkscape:connector-curvature="0"
         id="path126"
         style="fill:#589ad9;fill-opacity:1;fill-rule:nonzero;stroke:none"
         d="m 334.547,555.41 c 9.535,0 17.266,-7.734 17.266,-17.273 0,-9.535 -7.731,-17.27 -17.266,-17.27 -9.543,0 -17.274,7.735 -17.274,17.27 0,9.539 7.731,17.273 17.274,17.273" /><path
         inkscape:connector-curvature="0"
         id="path128"
         style="fill:#589ad9;fill-opacity:1;fill-rule:nonzero;stroke:none"
         d="m 457.797,591.297 c 9.535,0 17.269,-7.731 17.269,-17.266 0,-9.539 -7.734,-17.269 -17.269,-17.269 -9.535,0 -17.27,7.73 -17.27,17.269 0,9.535 7.735,17.266 17.27,17.266" /><path
         inkscape:connector-curvature="0"
         id="path130"
         style="fill:#589ad9;fill-opacity:1;fill-rule:nonzero;stroke:none"
         d="m 659.438,560.316 c 8.042,0 14.562,-6.519 14.562,-14.562 0,-8.039 -6.52,-14.559 -14.562,-14.559 -8.043,0 -14.559,6.52 -14.559,14.559 0,8.043 6.516,14.562 14.559,14.562" /><path
         inkscape:connector-curvature="0"
         id="path132"
         style="fill:#589ad9;fill-opacity:1;fill-rule:nonzero;stroke:none"
         d="m 458.305,465.676 c 8.136,0 14.726,-6.598 14.726,-14.731 0,-8.132 -6.59,-14.726 -14.726,-14.726 -8.133,0 -14.731,6.594 -14.731,14.726 0,8.133 6.598,14.731 14.731,14.731" /><path
         inkscape:connector-curvature="0"
         id="path134"
         style="fill:#234ea7;fill-opacity:1;fill-rule:nonzero;stroke:none"
         d="m 515.02,414.887 c 8.043,0 14.558,-6.52 14.558,-14.563 0,-8.043 -6.515,-14.558 -14.558,-14.558 -8.04,0 -14.555,6.515 -14.555,14.558 0,8.043 6.515,14.563 14.555,14.563" /><path
         inkscape:connector-curvature="0"
         id="path136"
         style="fill:#589ad9;fill-opacity:1;fill-rule:nonzero;stroke:none"
         d="m 440.02,354.781 c 8.132,0 14.73,-6.593 14.73,-14.73 0,-8.133 -6.598,-14.727 -14.73,-14.727 -8.137,0 -14.727,6.594 -14.727,14.727 0,8.137 6.59,14.73 14.727,14.73" /><path
         inkscape:connector-curvature="0"
         id="path138"
         style="fill:#589ad9;fill-opacity:1;fill-rule:nonzero;stroke:none"
         d="m 430.027,298.742 c 8.043,0 14.563,-6.515 14.563,-14.558 0,-8.043 -6.52,-14.567 -14.563,-14.567 -8.035,0 -14.554,6.524 -14.554,14.567 0,8.043 6.519,14.558 14.554,14.558" /><path
         inkscape:connector-curvature="0"
         id="path140"
         style="fill:#234ea7;fill-opacity:1;fill-rule:nonzero;stroke:none"
         d="m 402.602,248.797 c 8.043,0 14.558,-6.516 14.558,-14.559 0,-8.039 -6.515,-14.562 -14.558,-14.562 -8.036,0 -14.559,6.523 -14.559,14.562 0,8.043 6.523,14.559 14.559,14.559" /><path
         inkscape:connector-curvature="0"
         id="path142"
         style="fill:#589ad9;fill-opacity:1;fill-rule:nonzero;stroke:none"
         d="m 360.785,210.367 c 8.043,0 14.563,-6.519 14.563,-14.558 0,-8.047 -6.52,-14.563 -14.563,-14.563 -8.043,0 -14.558,6.516 -14.558,14.563 0,8.039 6.515,14.558 14.558,14.558" /><path
         inkscape:connector-curvature="0"
         id="path144"
         style="fill:#589ad9;fill-opacity:1;fill-rule:nonzero;stroke:none"
         d="m 308.98,187.344 c 8.04,0 14.559,-6.524 14.559,-14.563 0,-8.047 -6.519,-14.558 -14.559,-14.558 -8.042,0 -14.562,6.511 -14.562,14.558 0,8.039 6.52,14.563 14.562,14.563" /><path
         inkscape:connector-curvature="0"
         id="path146"
         style="fill:#589ad9;fill-opacity:1;fill-rule:nonzero;stroke:none"
         d="m 252.262,182.09 c 8.039,0 14.558,-6.516 14.558,-14.563 0,-8.039 -6.519,-14.55 -14.558,-14.55 -8.039,0 -14.559,6.511 -14.559,14.55 0,8.047 6.52,14.563 14.559,14.563" /><path
         inkscape:connector-curvature="0"
         id="path148"
         style="fill:#589ad9;fill-opacity:1;fill-rule:nonzero;stroke:none"
         d="m 197.07,195.125 c 8.043,0 14.559,-6.512 14.559,-14.559 0,-8.039 -6.516,-14.562 -14.559,-14.562 -8.043,0 -14.562,6.523 -14.562,14.562 0,8.047 6.519,14.559 14.562,14.559" /><path
         inkscape:connector-curvature="0"
         id="path150"
         style="fill:#234ea7;fill-opacity:1;fill-rule:nonzero;stroke:none"
         d="m 148.816,225.262 c 8.043,0 14.563,-6.516 14.563,-14.563 0,-8.035 -6.52,-14.558 -14.563,-14.558 -8.039,0 -14.558,6.523 -14.558,14.558 0,8.047 6.519,14.563 14.558,14.563" /><path
         inkscape:connector-curvature="0"
         id="path152"
         style="fill:#589ad9;fill-opacity:1;fill-rule:nonzero;stroke:none"
         d="m 112.758,269.109 c 8.039,0 14.562,-6.511 14.562,-14.55 0,-8.047 -6.523,-14.563 -14.562,-14.563 -8.043,0 -14.5588,6.516 -14.5588,14.563 0,8.039 6.5158,14.55 14.5588,14.55" /><path
         inkscape:connector-curvature="0"
         id="path154"
         style="fill:#589ad9;fill-opacity:1;fill-rule:nonzero;stroke:none"
         d="m 92.6055,322.445 c 8.0425,0 14.5625,-6.519 14.5625,-14.562 0,-8.039 -6.52,-14.559 -14.5625,-14.559 -8.0352,0 -14.5547,6.52 -14.5547,14.559 0,8.043 6.5195,14.562 14.5547,14.562" /><path
         inkscape:connector-curvature="0"
         id="path156"
         style="fill:#234ea7;fill-opacity:1;fill-rule:nonzero;stroke:none"
         d="m 90.5742,379.164 c 8.1367,0 14.7348,-6.598 14.7348,-14.73 0,-8.137 -6.5981,-14.735 -14.7348,-14.735 -8.1328,0 -14.7265,6.598 -14.7265,14.735 0,8.132 6.5937,14.73 14.7265,14.73" /><path
         inkscape:connector-curvature="0"
         id="path158"
         style="fill:#589ad9;fill-opacity:1;fill-rule:nonzero;stroke:none"
         d="m 106.66,433.848 c 8.133,0 14.731,-6.594 14.731,-14.731 0,-8.133 -6.598,-14.73 -14.731,-14.73 -8.1366,0 -14.7264,6.597 -14.7264,14.73 0,8.137 6.5898,14.731 14.7264,14.731" /><path
         inkscape:connector-curvature="0"
         id="path160"
         style="fill:#589ad9;fill-opacity:1;fill-rule:nonzero;stroke:none"
         d="m 139.336,480.066 c 8.043,0 14.559,-6.519 14.559,-14.558 0,-8.043 -6.516,-14.563 -14.559,-14.563 -8.043,0 -14.563,6.52 -14.563,14.563 0,8.039 6.52,14.558 14.563,14.558" /><path
         inkscape:connector-curvature="0"
         id="path162"
         style="fill:#589ad9;fill-opacity:1;fill-rule:nonzero;stroke:none"
         d="m 185.219,513.758 c 8.043,0 14.558,-6.52 14.558,-14.563 0,-8.039 -6.515,-14.558 -14.558,-14.558 -8.043,0 -14.563,6.519 -14.563,14.558 0,8.043 6.52,14.563 14.563,14.563" /><path
         inkscape:connector-curvature="0"
         id="path164"
         style="fill:#234ea7;fill-opacity:1;fill-rule:nonzero;stroke:none"
         d="m 239.395,530.859 c 8.043,0 14.558,-6.519 14.558,-14.562 0,-8.043 -6.515,-14.559 -14.558,-14.559 -8.043,0 -14.563,6.516 -14.563,14.559 0,8.043 6.52,14.562 14.563,14.562" /><path
         inkscape:connector-curvature="0"
         id="path166"
         style="fill:#589ad9;fill-opacity:1;fill-rule:nonzero;stroke:none"
         d="m 296.281,529.672 c 8.039,0 14.559,-6.52 14.559,-14.563 0,-8.039 -6.52,-14.558 -14.559,-14.558 -8.039,0 -14.558,6.519 -14.558,14.558 0,8.043 6.519,14.563 14.558,14.563" /><path
         inkscape:connector-curvature="0"
         id="path168"
         style="fill:#589ad9;fill-opacity:1;fill-rule:nonzero;stroke:none"
         d="m 349.777,510.711 c 8.137,0 14.735,-6.598 14.735,-14.731 0,-8.136 -6.598,-14.726 -14.735,-14.726 -8.132,0 -14.722,6.59 -14.722,14.726 0,8.133 6.59,14.731 14.722,14.731" /><path
         inkscape:connector-curvature="0"
         id="path170"
         style="fill:#589ad9;fill-opacity:1;fill-rule:nonzero;stroke:none"
         d="m 749.508,528.488 c 6.824,0 12.355,-5.535 12.355,-12.363 0,-6.824 -5.531,-12.355 -12.355,-12.355 -6.828,0 -12.36,5.531 -12.36,12.355 0,6.828 5.532,12.363 12.36,12.363" /><path
         inkscape:connector-curvature="0"
         id="path172"
         style="fill:#589ad9;fill-opacity:1;fill-rule:nonzero;stroke:none"
         d="m 464.398,411.496 c 6.829,0 12.36,-5.531 12.36,-12.355 0,-6.828 -5.531,-12.36 -12.36,-12.36 -6.828,0 -12.359,5.532 -12.359,12.36 0,6.824 5.531,12.355 12.359,12.355" /><path
         inkscape:connector-curvature="0"
         id="path174"
         style="fill:#589ad9;fill-opacity:1;fill-rule:nonzero;stroke:none"
         d="m 582.402,311.102 c 6.825,0 12.364,-5.532 12.364,-12.36 0,-6.824 -5.539,-12.355 -12.364,-12.355 -6.824,0 -12.359,5.531 -12.359,12.355 0,6.828 5.535,12.36 12.359,12.36" /><path
         inkscape:connector-curvature="0"
         id="path176"
         style="fill:#1671c2;fill-opacity:1;fill-rule:nonzero;stroke:none"
         d="m 410.223,328.879 c 6.828,0 12.359,-5.535 12.359,-12.363 0,-6.821 -5.531,-12.36 -12.359,-12.36 -6.825,0 -12.36,5.539 -12.36,12.36 0,6.828 5.535,12.363 12.36,12.363" /><path
         inkscape:connector-curvature="0"
         id="path178"
         style="fill:#1671c2;fill-opacity:1;fill-rule:nonzero;stroke:none"
         d="m 394.141,283.672 c 6.824,0 12.355,-5.527 12.355,-12.356 0,-6.828 -5.531,-12.363 -12.355,-12.363 -6.828,0 -12.36,5.535 -12.36,12.363 0,6.829 5.532,12.356 12.36,12.356" /><path
         inkscape:connector-curvature="0"
         id="path180"
         style="fill:#589ad9;fill-opacity:1;fill-rule:nonzero;stroke:none"
         d="m 364.512,245.918 c 6.824,0 12.355,-5.527 12.355,-12.355 0,-6.825 -5.531,-12.364 -12.355,-12.364 -6.828,0 -12.36,5.539 -12.36,12.364 0,6.828 5.532,12.355 12.36,12.355" /><path
         inkscape:connector-curvature="0"
         id="path182"
         style="fill:#234ea7;fill-opacity:1;fill-rule:nonzero;stroke:none"
         d="m 324.383,219.852 c 6.828,0 12.359,-5.536 12.359,-12.364 0,-6.828 -5.531,-12.363 -12.359,-12.363 -6.824,0 -12.356,5.535 -12.356,12.363 0,6.828 5.532,12.364 12.356,12.364" /><path
         inkscape:connector-curvature="0"
         id="path184"
         style="fill:#589ad9;fill-opacity:1;fill-rule:nonzero;stroke:none"
         d="m 277.996,207.656 c 6.828,0 12.359,-5.527 12.359,-12.355 0,-6.824 -5.531,-12.363 -12.359,-12.363 -6.824,0 -12.355,5.539 -12.355,12.363 0,6.828 5.531,12.355 12.355,12.355" /><path
         inkscape:connector-curvature="0"
         id="path186"
         style="fill:#1671c2;fill-opacity:1;fill-rule:nonzero;stroke:none"
         d="m 230.254,211.211 c 6.824,0 12.359,-5.527 12.359,-12.356 0,-6.824 -5.535,-12.363 -12.359,-12.363 -6.828,0 -12.359,5.539 -12.359,12.363 0,6.829 5.531,12.356 12.359,12.356" /><path
         inkscape:connector-curvature="0"
         id="path188"
         style="fill:#589ad9;fill-opacity:1;fill-rule:nonzero;stroke:none"
         d="m 186.063,229.668 c 6.828,0 12.359,-5.539 12.359,-12.363 0,-6.828 -5.531,-12.356 -12.359,-12.356 -6.825,0 -12.36,5.528 -12.36,12.356 0,6.824 5.535,12.363 12.36,12.363" /><path
         inkscape:connector-curvature="0"
         id="path190"
         style="fill:#1671c2;fill-opacity:1;fill-rule:nonzero;stroke:none"
         d="m 150.172,261.492 c 6.824,0 12.359,-5.527 12.359,-12.351 0,-6.828 -5.535,-12.364 -12.359,-12.364 -6.828,0 -12.359,5.536 -12.359,12.364 0,6.824 5.531,12.351 12.359,12.351" /><path
         inkscape:connector-curvature="0"
         id="path192"
         style="fill:#589ad9;fill-opacity:1;fill-rule:nonzero;stroke:none"
         d="m 126.133,302.637 c 6.73,0 12.187,-5.457 12.187,-12.192 0,-6.726 -5.457,-12.183 -12.187,-12.183 -6.735,0 -12.192,5.457 -12.192,12.183 0,6.735 5.457,12.192 12.192,12.192" /><path
         inkscape:connector-curvature="0"
         id="path194"
         style="fill:#1671c2;fill-opacity:1;fill-rule:nonzero;stroke:none"
         d="m 116.648,349.871 c 6.829,0 12.36,-5.531 12.36,-12.359 0,-6.824 -5.531,-12.356 -12.36,-12.356 -6.824,0 -12.359,5.532 -12.359,12.356 0,6.828 5.535,12.359 12.359,12.359" /><path
         inkscape:connector-curvature="0"
         id="path196"
         style="fill:#589ad9;fill-opacity:1;fill-rule:nonzero;stroke:none"
         d="m 122.914,397.445 c 6.824,0 12.359,-5.535 12.359,-12.359 0,-6.824 -5.535,-12.359 -12.359,-12.359 -6.824,0 -12.359,5.535 -12.359,12.359 0,6.824 5.535,12.359 12.359,12.359" /><path
         inkscape:connector-curvature="0"
         id="path198"
         style="fill:#234ea7;fill-opacity:1;fill-rule:nonzero;stroke:none"
         d="m 143.738,440.445 c 6.828,0 12.36,-5.531 12.36,-12.355 0,-6.828 -5.532,-12.36 -12.36,-12.36 -6.824,0 -12.355,5.532 -12.355,12.36 0,6.824 5.531,12.355 12.355,12.355" /><path
         inkscape:connector-curvature="0"
         id="path200"
         style="fill:#234ea7;fill-opacity:1;fill-rule:nonzero;stroke:none"
         d="m 177.43,474.648 c 6.828,0 12.359,-5.535 12.359,-12.359 0,-6.828 -5.531,-12.359 -12.359,-12.359 -6.825,0 -12.36,5.531 -12.36,12.359 0,6.824 5.535,12.359 12.36,12.359" /><path
         inkscape:connector-curvature="0"
         id="path202"
         style="fill:#589ad9;fill-opacity:1;fill-rule:nonzero;stroke:none"
         d="m 220.262,496.152 c 6.828,0 12.359,-5.535 12.359,-12.359 0,-6.828 -5.531,-12.359 -12.359,-12.359 -6.824,0 -12.36,5.531 -12.36,12.359 0,6.824 5.536,12.359 12.36,12.359" /><path
         inkscape:connector-curvature="0"
         id="path204"
         style="fill:#1671c2;fill-opacity:1;fill-rule:nonzero;stroke:none"
         d="m 267.672,503.094 c 6.824,0 12.355,-5.535 12.355,-12.364 0,-6.824 -5.531,-12.359 -12.355,-12.359 -6.828,0 -12.359,5.535 -12.359,12.359 0,6.829 5.531,12.364 12.359,12.364" /><path
         inkscape:connector-curvature="0"
         id="path206"
         style="fill:#234ea7;fill-opacity:1;fill-rule:nonzero;stroke:none"
         d="m 314.734,494.289 c 6.829,0 12.36,-5.535 12.36,-12.363 0,-6.824 -5.531,-12.356 -12.36,-12.356 -6.824,0 -12.355,5.532 -12.355,12.356 0,6.828 5.531,12.363 12.355,12.363" /><path
         inkscape:connector-curvature="0"
         id="path208"
         style="fill:#589ad9;fill-opacity:1;fill-rule:nonzero;stroke:none"
         d="m 386.352,488.191 c 6.828,0 12.359,-5.531 12.359,-12.359 0,-6.824 -5.531,-12.355 -12.359,-12.355 -6.825,0 -12.36,5.531 -12.36,12.355 0,6.828 5.535,12.359 12.36,12.359" /><path
         inkscape:connector-curvature="0"
         id="path210"
         style="fill:#234ea7;fill-opacity:1;fill-rule:nonzero;stroke:none"
         d="m 594.766,598.75 c 11.312,0 20.48,-9.172 20.48,-20.488 0,-11.317 -9.168,-20.485 -20.48,-20.485 -11.317,0 -20.489,9.168 -20.489,20.485 0,11.316 9.172,20.488 20.489,20.488" /><path
         inkscape:connector-curvature="0"
         id="path212"
         style="fill:#589ad9;fill-opacity:1;fill-rule:nonzero;stroke:none"
         d="m 813.863,606.27 c 9.535,0 17.266,-7.731 17.266,-17.274 0,-9.535 -7.731,-17.266 -17.266,-17.266 -9.539,0 -17.273,7.731 -17.273,17.266 0,9.543 7.734,17.274 17.273,17.274" /></g></g></svg>
